<svg width="16" height="13" viewBox="0 0 16 13" fill="none" xmlns="http://www.w3.org/2000/svg">
<path d="M10.5922 6.07766L6.84222 3.58742C6.69769 3.49147 6.51556 3.48639 6.36653 3.57414C6.21747 3.6619 6.125 3.82871 6.125 4.00977V8.99024C6.125 9.17129 6.21747 9.33807 6.36653 9.42586C6.43734 9.46756 6.51559 9.48828 6.59375 9.48828C6.68009 9.48828 6.76631 9.46295 6.84219 9.41258L10.5922 6.92235C10.7293 6.83134 10.8125 6.67173 10.8125 6.5C10.8125 6.32828 10.7293 6.16867 10.5922 6.07766ZM7.06253 8.09163V4.90834L9.45934 6.5L7.06253 8.09163Z" fill="white"/>
<path d="M13.6562 0.0253906H2.34375C1.05141 0.0253906 0 1.14251 0 2.51562V10.4844C0 11.8575 1.05141 12.9746 2.34375 12.9746H13.6562C14.9486 12.9746 16 11.8575 16 10.4844V2.51562C16 1.14251 14.9486 0.0253906 13.6562 0.0253906ZM15.0625 10.4844C15.0625 11.3082 14.4317 11.9785 13.6562 11.9785H2.34375C1.56834 11.9785 0.9375 11.3082 0.9375 10.4844V2.51562C0.9375 1.69176 1.56834 1.02148 2.34375 1.02148H13.6562C14.4317 1.02148 15.0625 1.69176 15.0625 2.51562V10.4844Z" fill="white"/>
</svg>
